<svg height="512pt" viewBox="0 -16 512 512" width="512pt" xmlns="http://www.w3.org/2000/svg"><path d="m224 248h64v16h-64zm0 0"/><path d="m248 224h16v64h-16zm0 0"/><path d="m456 248h16v16h-16zm0 0"/><path d="m392 248h16v16h-16zm0 0"/><path d="m424 216h16v16h-16zm0 0"/><path d="m424 280h16v16h-16zm0 0"/><path d="m73.753906 125-36-45 36-45 12.492188 10-28 35 28 35zm0 0"/><path d="m198.246094 125-12.492188-10 28.007813-35-28.007813-35 12.492188-10 35.992187 45zm0 0"/><path d="m101.96875 106.722656 56.015625-63.984375 12.039063 10.535157-56.015626 63.988281zm0 0"/><path d="m64 336h-32v-32h16v16h16zm0 0"/><path d="m488 0h-464c-13.253906 0-24 10.746094-24 24v320c0 13.253906 10.746094 24 24 24h168v40c0 13.253906-10.746094 24-24 24h-40v48h256v-48h-40c-13.253906 0-24-10.746094-24-24v-40h168c13.253906 0 24-10.746094 24-24v-320c0-13.253906-10.746094-24-24-24zm-120 448v16h-224v-16zm-112-31.664062c13.253906 0 24-10.746094 24-24v-24.335938h24v40c.03125 8.683594 2.914062 17.117188 8.207031 24h-112.414062c5.292969-6.882812 8.175781-15.316406 8.207031-24v-40h24v24.335938c0 13.253906 10.746094 24 24 24zm-8-24v-24.335938h16v24.335938c0 4.417968-3.582031 8-8 8s-8-3.582032-8-8zm248-48.335938c0 4.417969-3.582031 8-8 8h-464c-4.417969 0-8-3.582031-8-8v-72h161.601562c6.625 32.566406 32.703126 57.636719 65.507813 62.96875 32.800781 5.335938 65.480469-10.179688 82.082031-38.96875h37.601563c13.40625 23.308594 37.65625 38.296875 64.5 39.867188 26.84375 1.570312 52.671875-10.488282 68.707031-32.074219zm-64-24c-24.316406.058594-46.539062-13.746094-57.265625-35.566406l-2.214844-4.433594h-57.039062l-2.214844 4.433594c-14.03125 28.289062-46.597656 42.121094-76.695313 32.570312-30.101562-9.554687-48.734374-39.628906-43.882812-70.835937 4.847656-31.203125 31.734375-54.203125 63.3125-54.167969h176c35.347656 0 64 28.652344 64 64s-28.652344 64-64 64zm64-111.792969c-15.046875-20.242187-38.777344-32.183593-64-32.207031h-176c-44.164062.046875-79.953125 35.835938-80 80h-160v-232c0-4.417969 3.582031-8 8-8h464c4.417969 0 8 3.582031 8 8zm0 0"/><path d="m328 248h32v16h-32zm0 0"/><path d="m240 48h64v16h-64zm0 0"/><path d="m336 48h128v16h-128zm0 0"/><path d="m352 80h112v16h-112zm0 0"/><path d="m256 80h64v16h-64zm0 0"/><path d="m240 112h160v16h-160zm0 0"/><path d="m432 112h32v16h-32zm0 0"/><path d="m48 144h80v16h-80zm0 0"/><path d="m160 144h152v16h-152zm0 0"/><path d="m336 144h128v16h-128zm0 0"/><path d="m48 176h128v16h-128zm0 0"/><path d="m48 208h64v16h-64zm0 0"/><path d="m128 208h32v16h-32zm0 0"/></svg>