<?xml version="1.0" encoding="utf-8"?>
<!-- Generator: Adobe Illustrator 23.0.3, SVG Export Plug-In . SVG Version: 6.00 Build 0)  -->
<svg version="1.1" id="Layer_1" xmlns="http://www.w3.org/2000/svg" xmlns:xlink="http://www.w3.org/1999/xlink" x="0px" y="0px"
	 viewBox="0 0 2500 2215" style="enable-background:new 0 0 2500 2215;" xml:space="preserve">
<style type="text/css">
	.st0{fill:#222222;}
</style>
<path class="st0" d="M311.2,0.1l-311.2,389v108.9c0,311.2,508.3,311.2,508.3,0c0,311.2,487.5,311.2,487.5,0
	c0,311.2,508.3,311.2,508.3,0c0,311.2,487.6,311.2,487.6,0c0,311.2,508.2,311.2,508.2,0V389.1l-311.2-389H311.2z M503.1,684.8
	c-15.6,20.8-31.2,36.3-46.7,51.9c-57,46.7-129.7,67.4-202.3,67.4c-20.8,0-41.5,0-57-5.2v1416h2100.6v-1416
	c-20.8,5.2-36.3,5.2-57.1,5.2c-72.6,0-145.2-20.8-202.3-67.4c-15.5-15.6-31.1-31.2-46.6-51.9c-15.6,20.8-26,36.3-46.7,51.9
	c-57.1,46.7-129.6,67.4-197.1,67.4c-72.6,0-145.2-20.8-197.1-67.4c-15.5-15.6-31.1-31.2-46.7-51.9c-15.6,20.8-31.1,36.3-46.7,51.9
	c-67.4,51.9-140,72.6-212.6,72.6c-72.6,0-145.2-20.8-202.3-67.4c-15.6-15.6-31.1-31.1-46.7-51.9c-15.6,20.8-25.9,36.3-46.7,51.9
	c-57.1,46.7-129.7,67.4-197.1,67.4c-72.6,0-145.2-20.8-197.1-67.4c-15.6-15.6-31.1-31.1-46.7-51.9L503.1,684.8L503.1,684.8z
	 M783.2,897.4c119.3,0,171.1,31.2,233.4,155.6h461.6c26-124.5,77.8-155.6,233.4-155.6c119.2,0,321.5,114.1,352.7,274.9l155.6,606.9
	c31.1,155.6-57,269.7-212.6,269.7c-108.9,0-249-72.6-342.3-269.7H835c-93.4,202.2-233.4,269.7-342.3,269.7
	c-155.6,0-243.8-114.1-212.6-269.7l155.6-606.9c31.1-160.8,233.4-274.9,352.7-274.9L783.2,897.4L783.2,897.4z M1244.8,1110.1
	l-368.3,389h155.6v197.1h430.5v-191.8h155.6L1244.8,1110.1z"/>
</svg>
